<?xml version="1.0" encoding="utf-8"?>
<svg viewBox="0 0 52.128 49.239" width="52.128" height="49.239" xmlns="http://www.w3.org/2000/svg">
  <path d="M 7.8 21.281 L 7.8 37.601 Q 7.04 37.761 5.74 37.761 Q 4.44 37.761 3.68 37.601 L 3.68 22.961 Q 3.68 21.841 3.28 21.361 Q 2.88 20.881 1.92 20.881 L 1.48 20.881 Q 1.28 20.001 1.28 19.401 Q 1.28 18.801 1.48 17.881 Q 2.8 17.721 4 17.721 L 4.56 17.721 Q 6.08 17.721 6.94 18.681 Q 7.8 19.641 7.8 21.281 Z M 2.8 14.121 Q 2.44 13.401 2.44 12.361 Q 2.44 10.721 3.04 10.421 Q 3.64 10.121 5.04 10.081 Q 6.64 10.121 7.08 10.481 Q 7.52 10.841 7.56 12.361 Q 7.52 13.801 7.08 14.201 Q 6.64 14.601 5.04 14.641 Q 3.48 14.641 2.8 14.121 Z" style="fill: rgb(25, 118, 189); white-space: pre;"/>
  <path d="M 29.845 33.961 Q 29.845 35.681 29.325 36.641 Q 28.805 37.601 27.085 37.601 L 14.645 37.601 Q 13.005 36.161 13.005 35.001 Q 13.005 31.801 18.005 27.401 L 21.925 23.961 Q 23.445 22.641 24.185 21.261 Q 24.925 19.881 24.925 18.561 Q 24.925 16.761 23.845 15.681 Q 22.765 14.601 21.085 14.601 Q 19.405 14.601 18.185 15.661 Q 16.965 16.721 16.285 18.401 Q 15.445 18.361 14.565 17.981 Q 13.685 17.601 13.285 17.001 Q 13.725 15.761 14.485 14.701 Q 15.245 13.641 16.305 12.861 Q 17.365 12.081 18.725 11.621 Q 20.085 11.161 21.725 11.161 Q 23.325 11.161 24.705 11.721 Q 26.085 12.281 27.085 13.261 Q 28.085 14.241 28.645 15.541 Q 29.205 16.841 29.205 18.321 Q 29.205 19.841 28.885 20.981 Q 28.565 22.121 27.925 23.121 Q 27.285 24.121 26.345 25.041 Q 25.405 25.961 24.205 27.001 L 21.125 29.641 Q 17.605 32.681 17.205 34.281 Q 18.765 34.121 20.085 34.041 Q 21.405 33.961 22.485 33.961 Z" style="fill: rgb(76, 76, 76); white-space: pre;"/>
  <path d="M 48.17 30.161 L 49.53 33.481 Q 50.45 35.921 51.45 36.601 Q 50.33 37.881 48.69 37.881 Q 47.65 37.881 47.09 37.341 Q 46.53 36.801 46.05 35.561 L 44.45 31.641 Q 43.81 30.081 43.11 29.541 Q 42.41 29.001 41.45 29.001 Q 40.49 29.001 39.21 29.081 L 39.21 37.601 Q 38.45 37.761 37.21 37.761 Q 35.97 37.761 35.17 37.601 L 35.17 8.441 L 35.41 8.201 L 37.01 8.201 Q 38.25 8.201 38.73 8.801 Q 39.21 9.401 39.21 10.841 L 39.21 25.641 L 40.57 25.561 Q 41.21 25.561 41.53 25.001 L 45.05 19.481 Q 46.05 17.721 47.61 17.721 Q 49.17 17.721 49.93 17.761 L 50.17 18.081 L 45.81 25.001 Q 45.21 25.961 44.49 26.561 Q 46.97 27.201 48.17 30.161 Z" style="fill: rgb(25, 118, 189); white-space: pre;"/>
</svg>