<?xml version="1.0" encoding="utf-8"?>
<svg viewBox="0 0 225.856 49.239" width="225.856" height="49.239" xmlns="http://www.w3.org/2000/svg">
  <path d="M 7.8 21.281 L 7.8 37.601 Q 7.04 37.761 5.74 37.761 Q 4.44 37.761 3.68 37.601 L 3.68 22.961 Q 3.68 21.841 3.28 21.361 Q 2.88 20.881 1.92 20.881 L 1.48 20.881 Q 1.28 20.001 1.28 19.401 Q 1.28 18.801 1.48 17.881 Q 2.8 17.721 4 17.721 L 4.56 17.721 Q 6.08 17.721 6.94 18.681 Q 7.8 19.641 7.8 21.281 Z M 2.8 14.121 Q 2.44 13.401 2.44 12.361 Q 2.44 10.721 3.04 10.421 Q 3.64 10.121 5.04 10.081 Q 6.64 10.121 7.08 10.481 Q 7.52 10.841 7.56 12.361 Q 7.52 13.801 7.08 14.201 Q 6.64 14.601 5.04 14.641 Q 3.48 14.641 2.8 14.121 Z" style="fill: rgb(25, 118, 189); white-space: pre;"/>
  <path d="M 29.845 33.961 Q 29.845 35.681 29.325 36.641 Q 28.805 37.601 27.085 37.601 L 14.645 37.601 Q 13.005 36.161 13.005 35.001 Q 13.005 31.801 18.005 27.401 L 21.925 23.961 Q 23.445 22.641 24.185 21.261 Q 24.925 19.881 24.925 18.561 Q 24.925 16.761 23.845 15.681 Q 22.765 14.601 21.085 14.601 Q 19.405 14.601 18.185 15.661 Q 16.965 16.721 16.285 18.401 Q 15.445 18.361 14.565 17.981 Q 13.685 17.601 13.285 17.001 Q 13.725 15.761 14.485 14.701 Q 15.245 13.641 16.305 12.861 Q 17.365 12.081 18.725 11.621 Q 20.085 11.161 21.725 11.161 Q 23.325 11.161 24.705 11.721 Q 26.085 12.281 27.085 13.261 Q 28.085 14.241 28.645 15.541 Q 29.205 16.841 29.205 18.321 Q 29.205 19.841 28.885 20.981 Q 28.565 22.121 27.925 23.121 Q 27.285 24.121 26.345 25.041 Q 25.405 25.961 24.205 27.001 L 21.125 29.641 Q 17.605 32.681 17.205 34.281 Q 18.765 34.121 20.085 34.041 Q 21.405 33.961 22.485 33.961 Z" style="fill: rgb(76, 76, 76); white-space: pre;"/>
  <path d="M 48.17 30.161 L 49.53 33.481 Q 50.45 35.921 51.45 36.601 Q 50.33 37.881 48.69 37.881 Q 47.65 37.881 47.09 37.341 Q 46.53 36.801 46.05 35.561 L 44.45 31.641 Q 43.81 30.081 43.11 29.541 Q 42.41 29.001 41.45 29.001 Q 40.49 29.001 39.21 29.081 L 39.21 37.601 Q 38.45 37.761 37.21 37.761 Q 35.97 37.761 35.17 37.601 L 35.17 8.441 L 35.41 8.201 L 37.01 8.201 Q 38.25 8.201 38.73 8.801 Q 39.21 9.401 39.21 10.841 L 39.21 25.641 L 40.57 25.561 Q 41.21 25.561 41.53 25.001 L 45.05 19.481 Q 46.05 17.721 47.61 17.721 Q 49.17 17.721 49.93 17.761 L 50.17 18.081 L 45.81 25.001 Q 45.21 25.961 44.49 26.561 Q 46.97 27.201 48.17 30.161 Z" style="fill: rgb(25, 118, 189); white-space: pre;"/>
  <path d="M 79.328 19.721 Q 79.328 18.441 79.028 17.261 Q 78.728 16.081 78.048 15.181 Q 77.368 14.281 76.288 13.741 Q 75.208 13.201 73.648 13.201 Q 70.568 13.201 68.968 15.961 Q 67.368 18.721 67.368 23.881 Q 67.368 29.001 69.088 31.701 Q 70.808 34.401 74.168 34.401 Q 77.528 34.401 81.168 31.361 Q 82.808 32.441 83.288 34.121 Q 82.408 35.001 81.268 35.721 Q 80.128 36.441 78.868 36.981 Q 77.608 37.521 76.268 37.821 Q 74.928 38.121 73.648 38.121 Q 70.568 38.121 68.488 36.941 Q 66.408 35.761 65.228 33.821 Q 64.048 31.881 63.468 29.341 Q 62.888 26.801 62.888 24.081 Q 62.888 20.481 63.728 17.801 Q 64.568 15.121 66.028 13.341 Q 67.488 11.561 69.448 10.661 Q 71.408 9.761 73.608 9.761 Q 75.888 9.761 77.708 10.401 Q 79.528 11.041 80.828 12.121 Q 82.128 13.201 82.808 14.601 Q 83.488 16.001 83.488 17.561 Q 83.488 19.961 81.088 19.961 Q 80.328 19.961 79.328 19.721 Z M 101.13 35.921 Q 98.93 38.121 95.33 38.121 Q 93.25 38.121 91.65 37.381 Q 90.05 36.641 88.95 35.261 Q 87.85 33.881 87.27 31.981 Q 86.69 30.081 86.69 27.721 Q 86.69 25.401 87.27 23.481 Q 87.85 21.561 88.95 20.181 Q 90.05 18.801 91.65 18.061 Q 93.25 17.321 95.33 17.321 Q 97.41 17.321 99.01 18.061 Q 100.61 18.801 101.71 20.181 Q 102.81 21.561 103.39 23.481 Q 103.97 25.401 103.97 27.721 Q 103.97 33.081 101.13 35.921 Z M 95.33 20.481 Q 90.97 20.481 90.97 27.721 Q 90.97 34.961 95.33 34.961 Q 99.73 34.961 99.73 27.721 Q 99.73 20.481 95.33 20.481 Z M 124.468 24.041 L 124.468 33.361 Q 124.468 35.721 125.148 37.001 Q 124.108 37.881 122.708 37.881 Q 121.348 37.881 120.848 37.221 Q 120.348 36.561 120.348 35.241 L 120.348 25.081 Q 120.348 23.001 119.808 22.121 Q 119.268 21.241 117.948 21.241 Q 116.628 21.241 115.248 21.901 Q 113.868 22.561 112.828 23.721 L 112.828 37.601 Q 112.148 37.761 110.788 37.761 Q 110.148 37.761 109.628 37.721 Q 109.108 37.681 108.708 37.601 L 108.708 17.921 L 108.948 17.681 L 110.508 17.681 Q 112.668 17.681 112.788 20.161 Q 115.708 17.481 119.148 17.481 Q 121.828 17.481 123.148 19.261 Q 124.468 21.041 124.468 24.041 Z M 146.314 24.041 L 146.314 33.361 Q 146.314 35.721 146.994 37.001 Q 145.954 37.881 144.554 37.881 Q 143.194 37.881 142.694 37.221 Q 142.194 36.561 142.194 35.241 L 142.194 25.081 Q 142.194 23.001 141.654 22.121 Q 141.114 21.241 139.794 21.241 Q 138.474 21.241 137.094 21.901 Q 135.714 22.561 134.674 23.721 L 134.674 37.601 Q 133.994 37.761 132.634 37.761 Q 131.994 37.761 131.474 37.721 Q 130.954 37.681 130.554 37.601 L 130.554 17.921 L 130.794 17.681 L 132.354 17.681 Q 134.514 17.681 134.634 20.161 Q 137.554 17.481 140.994 17.481 Q 143.674 17.481 144.994 19.261 Q 146.314 21.041 146.314 24.041 Z M 167.024 29.041 L 155.264 29.041 Q 155.384 31.801 156.444 33.281 Q 157.504 34.761 160.024 34.761 Q 161.224 34.761 162.604 34.401 Q 163.984 34.041 165.464 33.241 Q 166.464 34.161 166.784 35.881 Q 163.584 38.121 159.264 38.121 Q 156.984 38.121 155.424 37.321 Q 153.864 36.521 152.884 35.121 Q 151.904 33.721 151.464 31.781 Q 151.024 29.841 151.024 27.601 Q 151.024 25.401 151.584 23.501 Q 152.144 21.601 153.184 20.241 Q 154.224 18.881 155.764 18.101 Q 157.304 17.321 159.224 17.321 Q 161.144 17.321 162.644 17.961 Q 164.144 18.601 165.184 19.741 Q 166.224 20.881 166.764 22.461 Q 167.304 24.041 167.304 25.881 Q 167.304 26.681 167.244 27.461 Q 167.184 28.241 167.024 29.041 Z M 159.344 20.401 Q 155.544 20.401 155.264 26.041 L 163.344 26.041 L 163.344 25.521 Q 163.344 23.241 162.364 21.821 Q 161.384 20.401 159.344 20.401 Z M 182.826 25.481 L 182.826 25.041 Q 182.826 20.521 179.306 20.521 Q 177.386 20.521 176.346 22.361 Q 175.306 24.201 175.306 27.841 Q 175.306 34.721 179.826 34.721 Q 182.066 34.721 184.666 32.721 Q 185.226 33.041 185.746 33.761 Q 186.266 34.481 186.426 35.161 Q 183.466 38.121 179.266 38.121 Q 177.146 38.121 175.606 37.341 Q 174.066 36.561 173.046 35.161 Q 172.026 33.761 171.526 31.801 Q 171.026 29.841 171.026 27.481 Q 171.026 25.041 171.706 23.141 Q 172.386 21.241 173.526 19.961 Q 174.666 18.681 176.166 18.001 Q 177.666 17.321 179.346 17.321 Q 181.066 17.321 182.406 17.841 Q 183.746 18.361 184.686 19.201 Q 185.626 20.041 186.126 21.141 Q 186.626 22.241 186.626 23.361 Q 186.626 25.641 184.546 25.641 Q 183.506 25.641 182.826 25.481 Z M 200.936 17.801 Q 201.136 18.481 201.136 19.361 Q 201.136 20.241 200.936 20.881 L 196.016 20.801 L 196.016 32.761 Q 196.016 34.521 197.656 34.521 L 200.416 34.521 Q 200.736 35.401 200.736 36.301 Q 200.736 37.201 200.656 37.481 Q 198.336 37.761 196.176 37.761 Q 191.976 37.761 191.976 33.641 L 191.976 20.841 L 189.016 20.881 Q 188.856 20.201 188.856 19.381 Q 188.856 18.561 189.016 17.801 L 191.976 17.881 L 191.976 14.361 Q 191.976 12.921 192.456 12.321 Q 192.936 11.721 194.176 11.721 L 195.736 11.721 L 196.016 12.001 L 196.016 17.921 Z M 206.497 25.801 Q 203.457 22.761 203.457 18.361 Q 203.457 16.201 204.237 14.281 Q 205.017 12.361 206.477 10.941 Q 207.937 9.521 209.837 8.701 Q 211.737 7.881 213.937 7.881 Q 216.097 7.881 218.057 8.701 Q 220.017 9.521 221.437 10.941 Q 222.857 12.361 223.637 14.281 Q 224.417 16.201 224.417 18.361 Q 224.417 20.561 223.597 22.461 Q 222.777 24.361 221.357 25.781 Q 219.937 27.201 218.017 28.021 Q 216.097 28.841 213.937 28.841 Q 209.537 28.841 206.497 25.801 Z M 208.417 12.721 Q 206.217 15.041 206.217 18.361 Q 206.217 20.001 206.797 21.441 Q 207.377 22.881 208.417 23.961 Q 209.457 25.041 210.857 25.681 Q 212.257 26.321 213.937 26.321 Q 215.577 26.321 216.997 25.681 Q 218.417 25.041 219.457 23.961 Q 220.497 22.881 221.097 21.441 Q 221.697 20.001 221.697 18.361 Q 221.697 16.761 221.097 15.301 Q 220.497 13.841 219.517 12.741 Q 218.537 11.641 217.057 11.001 Q 215.577 10.361 213.937 10.361 Q 210.657 10.361 208.417 12.721 Z M 218.017 16.161 Q 218.017 18.121 216.017 18.801 Q 216.657 19.041 217.337 20.361 L 217.857 21.401 Q 218.257 22.161 218.737 22.521 Q 218.177 23.441 217.217 23.441 Q 216.257 23.481 215.577 22.201 L 214.577 20.361 Q 214.137 19.561 213.377 19.561 L 212.497 19.561 L 212.497 23.241 Q 211.817 23.441 211.297 23.441 Q 210.737 23.441 210.057 23.241 L 210.057 13.361 L 210.177 13.241 Q 211.457 13.201 212.517 13.181 Q 213.577 13.161 214.417 13.161 Q 216.097 13.161 217.057 13.981 Q 218.017 14.801 218.017 16.161 Z M 212.497 15.041 L 212.497 17.681 Q 213.137 17.601 213.697 17.601 Q 214.257 17.601 214.657 17.501 Q 215.057 17.401 215.277 17.161 Q 215.497 16.921 215.497 16.361 Q 215.497 15.041 214.017 15.041 Z" style="fill: rgb(76, 76, 76); white-space: pre;"/>
</svg>